<?xml version="1.0" encoding="utf-8"?>
<!-- Generator: Adobe Illustrator 22.1.0, SVG Export Plug-In . SVG Version: 6.00 Build 0)  -->
<svg version="1.1" id="Layer_1" xmlns="http://www.w3.org/2000/svg" xmlns:xlink="http://www.w3.org/1999/xlink" x="0px" y="0px"
	 viewBox="0 0 297 112.5" style="enable-background:new 0 0 297 112.5;" xml:space="preserve">
<style type="text/css">
	.st0{fill:#4A4A49;}
</style>
<g>
	<g>
		<rect x="11.9" y="14" class="st0" width="273.2" height="2.7"/>
	</g>
	<g>
		<rect x="11.9" y="95.8" class="st0" width="273.2" height="2.7"/>
	</g>
	<path class="st0" d="M216,60.3c-4,0-5.6,2.8-5.6,6.6v13.3c0,3.8,1.6,6.6,5.6,6.6s5.6-2.8,5.6-6.6v-7.1h-5.1v1.6h3.5v5.6
		c0,2.8-1.1,4.9-3.9,4.9c-2.9,0-3.9-2.1-3.9-4.9V66.8c0-2.8,1.1-4.9,3.9-4.9c2.9,0,3.9,2.1,3.9,4.9v2h1.6v-1.9
		C221.6,63.1,220,60.3,216,60.3 M197.1,86.6V63.4l8.2,23.2h1.9v-26h-1.6v22l-7.8-22h-2.2v26H197.1z M191.8,60.5h-1.7v26h1.7V60.5z
		 M176.9,86.6h9.9V85h-8.2V60.5h-1.7V86.6z M163.7,86.6h9.9V85h-8.2V60.5h-1.7V86.6z M158.7,72.6h-7.1V62.1h8.6v-1.6h-10.3v26h10.3
		V85h-8.6V74.2h7.1V72.6z M140.8,60.3c-3.8,0-5.5,2.6-5.5,6.5c0,7.3,9.4,7.4,9.4,13.6c0,2.8-1.1,4.8-3.9,4.8c-2.9,0-3.9-2-3.9-4.8
		V79h-1.6v1.3c0,3.8,1.6,6.5,5.6,6.5c4,0,5.6-2.7,5.6-6.5c0-7.2-9.4-7.3-9.4-13.6c0-2.8,1-4.8,3.9-4.8c2.8,0,3.9,2.1,3.9,4.8v0.7
		h1.6v-0.6C146.4,63.1,144.8,60.3,140.8,60.3 M121.7,86.6V63.4l8.2,23.2h1.9v-26h-1.6v22l-7.8-22h-2.2v26H121.7z M107,80.3V60.5
		h-1.7v19.7c0,3.7,1.6,6.6,5.6,6.6s5.5-2.9,5.5-6.6V60.5h-1.6v19.8c0,2.8-1,4.9-3.9,4.9C108,85.3,107,83.1,107,80.3 M92,80.3V66.8
		c0-2.8,1.1-4.9,4-4.9c2.9,0,4.1,2.1,4.1,4.9v13.5c0,2.8-1.2,4.9-4.1,4.9C93.1,85.3,92,83.2,92,80.3 M90.3,66.9v13.3
		c0,3.8,1.7,6.6,5.7,6.6c4,0,5.8-2.8,5.8-6.6V66.9c0-3.8-1.7-6.6-5.8-6.6C92.1,60.3,90.3,63.1,90.3,66.9 M81.3,60.3
		c-4,0-5.6,2.8-5.6,6.6v13.3c0,3.8,1.6,6.6,5.6,6.6c4,0,5.6-2.8,5.6-6.6v-3h-1.6v3.1c0,2.8-1.1,4.9-3.9,4.9s-3.9-2.1-3.9-4.9V66.8
		c0-2.8,1.1-4.9,3.9-4.9s3.9,2.1,3.9,4.9v2.3h1.6v-2.2C86.9,63.1,85.3,60.3,81.3,60.3"/>
	<path class="st0" d="M274.5,33.2l5.1,18.9h4.2V26h-3.6v15.6L276,26h-5.1v26h3.7V33.2z M259.2,46V32c0-1.9,0.8-2.6,2.1-2.6
		c1.3,0,2.1,0.7,2.1,2.6V46c0,1.9-0.8,2.6-2.1,2.6C260,48.6,259.2,47.9,259.2,46 M255.1,32.2v13.5c0,4.2,2.2,6.5,6.2,6.5
		s6.2-2.4,6.2-6.5V32.2c0-4.2-2.2-6.5-6.2-6.5S255.1,28.1,255.1,32.2 M240.2,32.2c0,7.4,8,8.5,8,13.8c0,1.9-0.8,2.5-2.1,2.5
		c-1.3,0-2.1-0.7-2.1-2.5v-1.9h-3.9v1.6c0,4.2,2.1,6.5,6.1,6.5c4,0,6.1-2.4,6.1-6.5c0-7.4-8-8.4-8-13.8c0-1.9,0.7-2.6,2-2.6
		c1.3,0,2,0.7,2,2.6V33h3.9v-0.8c0-4.2-2-6.5-6-6.5C242.3,25.7,240.2,28.1,240.2,32.2 M225.6,26v3.7h4.3V52h4.1V29.7h4.3V26H225.6z
		 M215.1,29.7h2c1.5,0,2.1,0.8,2.1,2.7v2.6c0,2.1-0.9,2.8-2.5,2.8h-1.6V29.7z M219.6,52h4.2c-0.4-1-0.4-1.9-0.4-3.2v-4
		c0-2.7-0.7-4.7-2.7-5.5c1.8-0.9,2.7-2.6,2.7-5.3v-2c0-4-1.8-6-6.1-6H211v26h4.1V41.4h1.4c1.9,0,2.7,0.9,2.7,3.3v4.1
		C219.2,51,219.4,51.4,219.6,52 M200.7,37v-7.3h7.1V26h-11.2v26h11.2v-3.7h-7.1v-7.6h5.6V37H200.7z M184.8,40.3h1.8
		c1.9,0,2.6,0.7,2.6,3.2v2.3c0,1.9-0.7,2.6-2.1,2.6h-2.3V40.3z M184.8,29.7h2c1.5,0,2.1,0.8,2.1,2.7v1.5c0,2.1-0.9,2.8-2.5,2.8h-1.6
		V29.7z M186.9,26h-6.2v26h6.4c4.1,0,6.2-2.2,6.2-6.2v-2.1c0-2.8-0.9-4.7-3-5.6c1.8-0.9,2.6-2.6,2.6-5.2V32
		C193,28,191.2,26,186.9,26 M169,46V32c0-1.9,0.8-2.6,2.1-2.6c1.3,0,2.1,0.7,2.1,2.6V46c0,1.9-0.8,2.6-2.1,2.6
		C169.8,48.6,169,47.9,169,46 M164.9,32.2v13.5c0,4.2,2.2,6.5,6.2,6.5s6.2-2.4,6.2-6.5V32.2c0-4.2-2.2-6.5-6.2-6.5
		S164.9,28.1,164.9,32.2 M153.6,29.7h2c1.5,0,2.1,0.8,2.1,2.7v2.6c0,2.1-0.9,2.8-2.5,2.8h-1.6V29.7z M158.1,52h4.2
		c-0.4-1-0.4-1.9-0.4-3.2v-4c0-2.7-0.7-4.7-2.7-5.5c1.8-0.9,2.7-2.6,2.7-5.3v-2c0-4-1.8-6-6.1-6h-6.2v26h4.1V41.4h1.4
		c1.9,0,2.7,0.9,2.7,3.3v4.1C157.7,51,157.9,51.4,158.1,52 M132.7,37v-7.3h7.1V26h-11.2v26h11.2v-3.7h-7.1v-7.6h5.6V37H132.7z
		 M115.6,33.2l5.1,18.9h4.2V26h-3.6v15.6L117.1,26h-5.1v26h3.7V33.2z M104.2,52h4.1V26h-4.1V52z M92.5,29.7h2c1.5,0,2.1,0.8,2.1,2.7
		v2.6c0,2.1-0.9,2.8-2.5,2.8h-1.6V29.7z M97,52h4.2c-0.4-1-0.4-1.9-0.4-3.2v-4c0-2.7-0.7-4.7-2.7-5.5c1.8-0.9,2.7-2.6,2.7-5.3v-2
		c0-4-1.8-6-6.1-6h-6.2v26h4.1V41.4H94c1.9,0,2.7,0.9,2.7,3.3v4.1C96.6,51,96.8,51.4,97,52 M78.1,37v-7.3h7.1V26H74v26h11.2v-3.7
		h-7.1v-7.6h5.6V37H78.1z M61.5,52V40.9h4.7V52h4.2V26h-4.2v11.2h-4.7V26h-4.1v26H61.5z M42.2,26v3.7h4.3V52h4.1V29.7h4.3V26H42.2z
		 M32.5,43.8l2-13.2l2,13.2H32.5z M41.8,52l-4.2-26h-6l-4.2,26h3.8l0.7-4.7h5l0.7,4.7H41.8z M25.4,42.3h-3.9V46
		c0,1.9-0.8,2.5-2.1,2.5c-1.3,0-2.1-0.7-2.1-2.5V32c0-1.9,0.8-2.6,2.1-2.6c1.3,0,2.1,0.7,2.1,2.6v2.8h3.9v-2.5
		c0-4.2-2.1-6.5-6.1-6.5s-6.1,2.4-6.1,6.5v13.5c0,4.2,2.1,6.5,6.1,6.5s6.1-2.4,6.1-6.5V42.3z"/>
</g>
</svg>
