<svg xmlns="http://www.w3.org/2000/svg" viewBox="0 0 27.441 27.441">
  <g id="instagram-logo" transform="translate(511.425 -407.086)">
    <path id="Path_3" data-name="Path 3" d="M-505.387,407.086h15.365a6.062,6.062,0,0,1,6.038,6.038v15.351a6.065,6.065,0,0,1-6.038,6.052h-15.365a6.065,6.065,0,0,1-6.038-6.052V413.124a6.062,6.062,0,0,1,6.038-6.038Z" fill="#f8a300" fill-rule="evenodd"/>
    <g id="Group_13" data-name="Group 13" transform="translate(-507.044 411.467)">
      <g id="Group_10" data-name="Group 10" transform="translate(0 0)">
        <path id="Path_4" data-name="Path 4" d="M-465.149,458.678h-8.046a5.322,5.322,0,0,1-5.316-5.316v-8.047A5.322,5.322,0,0,1-473.195,440h8.046a5.322,5.322,0,0,1,5.316,5.316v8.047A5.322,5.322,0,0,1-465.149,458.678Zm-8.046-17.078a3.719,3.719,0,0,0-3.715,3.715v8.047a3.719,3.719,0,0,0,3.715,3.715h8.046a3.719,3.719,0,0,0,3.715-3.715v-8.047a3.719,3.719,0,0,0-3.715-3.715Z" transform="translate(478.511 -439.999)" fill="#fff"/>
      </g>
      <g id="Group_11" data-name="Group 11" transform="translate(4.557 4.557)">
        <path id="Path_5" data-name="Path 5" d="M-439.5,483.794a4.788,4.788,0,0,1-4.783-4.783,4.788,4.788,0,0,1,4.783-4.783,4.788,4.788,0,0,1,4.783,4.783A4.788,4.788,0,0,1-439.5,483.794Zm0-7.964a3.185,3.185,0,0,0-3.182,3.181,3.185,3.185,0,0,0,3.182,3.182,3.185,3.185,0,0,0,3.182-3.182A3.185,3.185,0,0,0-439.5,475.83Z" transform="translate(444.28 -474.229)" fill="#fff"/>
      </g>
      <g id="Group_12" data-name="Group 12" transform="translate(13.177 3.133)">
        <path id="Path_6" data-name="Path 6" d="M-377.22,464.688a1.149,1.149,0,0,1-1.149,1.149,1.15,1.15,0,0,1-1.15-1.149,1.15,1.15,0,0,1,1.15-1.15A1.15,1.15,0,0,1-377.22,464.688Z" transform="translate(379.519 -463.538)" fill="#fff"/>
      </g>
    </g>
  </g>
</svg>
