<svg xmlns="http://www.w3.org/2000/svg" viewBox="0 0 26.824 27.142">
  <g id="linkedin-logo" transform="translate(-633.225 -217.004)">
    <path id="Path_75" data-name="Path 75" d="M660.049,241.433a2.709,2.709,0,0,1-2.7,2.713H635.929a2.709,2.709,0,0,1-2.7-2.713V219.717a2.709,2.709,0,0,1,2.7-2.713h21.416a2.709,2.709,0,0,1,2.7,2.713Z" fill="#f8a300"/>
    <g id="Group_33" data-name="Group 33" transform="translate(638.128 221.836)">
      <path id="Path_76" data-name="Path 76" d="M668.476,249.78a1.8,1.8,0,0,1-1.947,1.8,1.808,1.808,0,1,1,1.947-1.8Zm-3.727,14.839v-11.61h3.609v11.61Z" transform="translate(-664.654 -247.976)" fill="#fff"/>
      <path id="Path_77" data-name="Path 77" d="M701.726,282.529c0-1.448-.047-2.659-.095-3.7h3.134l.166,1.615H705a4.17,4.17,0,0,1,3.585-1.876c2.374,0,4.155,1.591,4.155,5.01v6.862h-3.609V284c0-1.5-.523-2.517-1.828-2.517a1.982,1.982,0,0,0-1.852,1.353,2.6,2.6,0,0,0-.119.9v6.7h-3.609Z" transform="translate(-695.862 -273.792)" fill="#fff"/>
    </g>
  </g>
</svg>
